<?xml version="1.0" encoding="UTF-8"?>
<!DOCTYPE svg  PUBLIC '-//W3C//DTD SVG 1.1//EN'  'http://www.w3.org/Graphics/SVG/1.1/DTD/svg11.dtd'>
<svg enable-background="new 0 0 2687.907 1521.3123" version="1.1" viewBox="0 0 2687.907 1521.3123" xml:space="preserve" xmlns="http://www.w3.org/2000/svg">
	<path d="m2597.1 1224.2c3.5208-10.42 6.6802-21.004 9.5361-31.712l-13.047 30.755 3.5113 0.9577z" fill="#65BCE8"/>
	<path d="m2594 1233c1.0508-2.9309 2.106-5.8597 3.1042-8.8153l-3.5112-0.9576 0.407 9.7729z" fill="#909615"/>
	<path d="m2620.6 1119.3c2.231-19.399 3.4031-39.12 3.4031-59.117 0-21.663-1.3594-43.008-3.9709-63.964l-107.65-19.573 108.22 142.65z" fill="#2CA30E"/>
	<path d="m2620 996.23c-4.3066-34.554-12.044-68.043-22.883-100.1l-84.769 80.531 107.65 19.573z" fill="#3200F9"/>
	<path d="m2555.3 803.91c-11.894-20.529-25.17-40.157-39.706-58.753l-16.779-1.4982 56.485 60.251z" fill="#D6E100"/>
	<path d="m2515.6 745.15c-2.907-3.7188-5.8577-7.4016-8.8643-11.037l-7.915 9.5388 16.779 1.4982z" fill="#0F00BD"/>
	<path d="m2490.7 1158.2l127.67-22.096c0.8274-5.5656 1.582-11.154 2.2285-16.776l-108.22-142.65-21.675 181.53z" fill="#D1005A"/>
	<path d="m2506.7 734.12c-1.5649-1.8925-3.1646-3.7553-4.7559-5.6249l-3.1592 15.164 7.9151-9.5389z" fill="#5100B0"/>
	<path d="m2498.8 876.41l90.396-2.0089c-9.533-24.469-20.89-48.025-33.91-70.499l-56.485-60.251v132.76z" fill="#AB7500"/>
	<path d="m2512.3 976.66l84.769-80.531c-2.4746-7.3199-5.1277-14.557-7.9204-21.724l-90.396 2.0089 13.547 100.25z" fill="#730048"/>
	<path d="m2593.6 1223.2l13.047-30.755c4.908-18.402 8.8167-37.209 11.664-56.366l-127.67 22.096 102.96 65.025z" fill="#88EB00"/>
	<path d="m2477.1 1266.6l75.811 53.91c16.328-27.601 30.123-56.87 41.099-87.487l-0.407-9.7729-116.5 43.35z" fill="#F10064"/>
	<path d="m2493.6 1401.4c3.5154-3.9298 6.9841-7.9014 10.378-11.939l-18.792 7.1587 8.4131 4.7803z" fill="#00D2EA"/>
	<path d="m2486.7 1409c2.335-2.5077 4.627-5.0551 6.9116-7.6091l-8.4131-4.7803 1.5015 12.389z" fill="#F87700"/>
	<path d="m2485.2 1396.6l18.792-7.1587c18.117-21.55 34.48-44.618 48.891-68.981l-75.811-53.91 8.1281 130.05z" fill="#41F105"/>
	<polygon points="2593.6 1223.2 2490.7 1158.2 2477.1 1266.6" fill="#4B0183"/>
	<polygon points="2490.7 1158.2 2512.3 976.66 2395.8 1106.7" fill="#A400A1"/>
	<polygon points="2395.8 1106.7 2512.3 976.66 2376.9 984.79" fill="#FD632C"/>
	<path d="m2498.8 743.65l3.1592-15.164c-25.605-30.074-54.62-57.149-86.459-80.626l-46.75 14.508 130.05 81.281z" fill="#D6C400"/>
	<polygon points="2498.8 876.41 2498.8 743.65 2360.6 860.16" fill="#007B53"/>
	<path d="m2415.5 647.87c-5.8389-4.3057-11.759-8.5083-17.784-12.568l-28.966 27.077 46.75-14.508z" fill="#8E6220"/>
	<polygon points="2512.3 976.66 2498.8 876.41 2376.9 984.79" fill="#1B349D"/>
	<polygon points="2485.2 1396.6 2477.1 1266.6 2404 1272" fill="#00FEB1"/>
	<path d="m2390.4 1478.2c0.2322-0.0708 0.4646-0.1387 0.696-0.2104l-0.6624-0.051-0.0336 0.2614z" fill="#00E830"/>
	<polygon points="2360.6 860.16 2498.8 743.65 2357.9 735.53" fill="#991388"/>
	<path d="m2390.4 1477.9l0.6624 0.051c21.256-6.5902 41.084-17.577 58.092-32.476 13.139-11.509 25.675-23.687 37.574-36.467l-1.5015-12.389-94.828 81.281z" fill="#00CF79"/>
	<polygon points="2404 1272 2371.4 1383.1 2485.2 1396.6" fill="#009698"/>
	<polygon points="2477.1 1266.6 2490.7 1158.2 2404 1272" fill="#07DEA5"/>
	<polygon points="2376.9 984.79 2498.8 876.41 2360.6 860.16" fill="#E1830B"/>
	<polygon points="2498.8 743.65 2368.7 662.37 2357.9 735.53" fill="#534E00"/>
	<path d="m2397.7 635.3c-9.9182-6.6831-20.082-13.029-30.477-19.02l1.5115 46.096 28.966-27.077z" fill="#D70078"/>
	<polygon points="2404 1272 2490.7 1158.2 2395.8 1106.7" fill="#8EBD00"/>
	<polygon points="2371.4 1383.1 2390.4 1477.9 2485.2 1396.6" fill="#00CE99"/>
	<path d="m2367.2 616.28c-11.408-6.5741-23.1-12.708-35.04-18.407l36.552 64.503-1.5115-46.096z" fill="#C3F400"/>
	<polygon points="2395.8 1106.7 2376.9 984.79 2268.5 979.37" fill="#B4001B"/>
	<polygon points="2257.6 1361.4 2371.4 1383.1 2404 1272" fill="#0085E7"/>
	<polygon points="2279.3 1217.8 2404 1272 2395.8 1106.7" fill="#A80036"/>
	<polygon points="2233.3 1117.5 2395.8 1106.7 2268.5 979.37" fill="#07EEA7"/>
	<polygon points="2279.3 1217.8 2257.6 1361.4 2404 1272" fill="#DA2754"/>
	<polygon points="2376.9 984.79 2360.6 860.16 2257.6 903.51" fill="#39005D"/>
	<path d="m2390.4 1477.9l-54.181 7.2242h7.7529c15.855 0 31.468-2.4095 46.394-6.9628l0.0338-0.2614z" fill="#0023AC"/>
	<polygon points="2233.3 1117.5 2279.3 1217.8 2395.8 1106.7" fill="#0080DB"/>
	<path d="m2368.7 662.37l-36.552-64.503c-24.94-11.902-50.993-21.841-77.962-29.626l-26.373 80.582 140.89 13.547z" fill="#52AE42"/>
	<polygon points="2268.5 979.37 2376.9 984.79 2257.6 903.51" fill="#DFD400"/>
	<polygon points="2371.4 1383.1 2245.7 1485.1 2336.2 1485.1 2390.4 1477.9" fill="#AE0079"/>
	<polygon points="2257.6 1361.4 2231 1485.1 2245.7 1485.1 2371.4 1383.1" fill="#00B08D"/>
	<polygon points="2357.9 735.53 2241.4 778.88 2360.6 860.16" fill="#68ED00"/>
	<polygon points="2368.7 662.37 2227.8 648.83 2357.9 735.53" fill="#98F85D"/>
	<polygon points="2360.6 860.16 2241.4 778.88 2257.6 903.51" fill="#CB2B00"/>
	<polygon points="2357.9 735.53 2227.8 648.83 2241.4 778.88" fill="#00FC07"/>
	<polygon points="2162.8 1380.4 2220 1485.1 2231 1485.1 2257.6 1361.4" fill="#AC0063"/>
	<polygon points="2257.6 903.51 2241.4 778.88 2157.4 873.7" fill="#21725C"/>
	<polygon points="2165.5 984.79 2233.3 1117.5 2268.5 979.37" fill="#84FD1E"/>
	<path d="m2254.2 568.24c-31.448-9.0781-64.141-15.205-97.761-18.101l71.388 98.683 26.373-80.582z" fill="#A37700"/>
	<polygon points="2141.1 1225.9 2257.6 1361.4 2279.3 1217.8" fill="#8E8600"/>
	<polygon points="2241.4 778.88 2227.8 648.83 2168.2 762.62" fill="#00FC42"/>
	<polygon points="2162.8 1380.4 2257.6 1361.4 2141.1 1225.9" fill="#00F980"/>
	<polygon points="2141.1 1225.9 2279.3 1217.8 2233.3 1117.5" fill="#D70FB2"/>
	<path d="m2227.8 648.83l-71.388-98.683c-5.8232-0.5016-11.665-0.9366-17.543-1.2416l10.359 89.087 78.571 10.838z" fill="#00DB86"/>
	<polygon points="2268.5 979.37 2257.6 903.51 2165.5 984.79" fill="#00CD80"/>
	<polygon points="2257.6 903.51 2157.4 873.7 2165.5 984.79" fill="#EC16A5"/>
	<polygon points="2241.4 778.88 2168.2 762.62 2157.4 873.7" fill="#009BCA"/>
	<polygon points="2111.3 1123 2233.3 1117.5 2165.5 984.79" fill="#816FCA"/>
	<polygon points="2227.8 648.83 2149.3 637.99 2168.2 762.62" fill="#C000A5"/>
	<polygon points="2111.3 1123 2141.1 1225.9 2233.3 1117.5" fill="#A900E2"/>
	<polygon points="2122.7 1485.1 2220 1485.1 2162.8 1380.4" fill="#B10A90"/>
	<path d="m2066 388.34c-4.1096-12.515-8.6794-24.82-13.708-36.889l-11.377 12.894 25.085 23.994z" fill="#00F23E"/>
	<polygon points="1994.8 1242.2 2005.7 1358.7 2141.1 1225.9" fill="#57213A"/>
	<polygon points="2149.3 637.99 2030.1 656.96 2040.9 740.95" fill="#F400B0"/>
	<polygon points="2005.7 1358.7 2162.8 1380.4 2141.1 1225.9" fill="#7E00DC"/>
	<polygon points="2005.7 1358.7 2097.6 1485.1 2122.7 1485.1 2162.8 1380.4" fill="#9576D2"/>
	<polygon points="1986.7 1036.3 2111.3 1123 2165.5 984.79" fill="#900011"/>
	<polygon points="2157.4 873.7 2003 900.8 2165.5 984.79" fill="#6711BD"/>
	<polygon points="2168.2 762.62 2040.9 740.95 2157.4 873.7" fill="#E10014"/>
	<polygon points="2168.2 762.62 2149.3 637.99 2040.9 740.95" fill="#A11653"/>
	<path d="m2149.3 637.99l-10.359-89.087c-7.968-0.4135-15.99-0.6235-24.05-0.6685l-84.803 108.72 119.21-18.966z" fill="#98CC00"/>
	<polygon points="2157.4 873.7 2040.9 740.95 2003 900.8" fill="#DB2A00"/>
	<polygon points="2165.5 984.79 2003 900.8 1986.7 1036.3" fill="#0b2"/>
	<path d="m2052.3 351.45c-3.1472-7.5549-6.4724-15.016-9.9663-22.383l-1.4109 35.277 11.377-12.894z" fill="#1EE000"/>
	<path d="m2030.1 656.96l84.803-108.72c-0.9724-0.0054-1.939-0.0369-2.9126-0.0369-6.8623 0-13.688 0.1513-20.485 0.4191 2e-4 -0.1403 0.0049-0.279 0.0049-0.4191 0-6.1263-0.1465-12.218-0.3599-18.292l-98.981 18.676 37.931 108.37z" fill="#5A80FC"/>
	<polygon points="1994.8 1242.2 2141.1 1225.9 2111.3 1123" fill="#A000C1"/>
	<polygon points="1994.8 1123 1994.8 1242.2 2111.3 1123" fill="#9D3DFC"/>
	<polygon points="1992.8 1485.1 2097.6 1485.1 2005.7 1358.7" fill="#1C26ED"/>
	<path d="m2091.1 529.9c-0.9795-27.885-4.1787-55.202-9.4451-81.779l-89.536 100.45 98.981-18.676z" fill="#EF0829"/>
	<polygon points="1994.8 1123 2111.3 1123 1986.7 1036.3" fill="#9536E6"/>
	<path d="m1992.1 548.58l89.536-100.45c-4.0408-20.392-9.2976-40.345-15.683-59.788l-25.085-23.994-48.769 184.24z" fill="#A900DC"/>
	<polygon points="2003 900.8 1867.5 749.07 1891.9 898.09" fill="#5400E8"/>
	<polygon points="1919 1475.2 1935.1 1485.1 1992.8 1485.1 2005.7 1358.7" fill="#C76E00"/>
	<path d="m1914.9 161.39c-0.3453-0.2993-0.6926-0.5952-1.0386-0.8936l-0.3187 0.6501 1.3573 0.2435z" fill="#31007F"/>
	<polygon points="2030.1 656.96 1992.1 548.58 1913.6 632.57" fill="#D1B52D"/>
	<polygon points="2003 900.8 2040.9 740.95 1867.5 749.07" fill="#13BD00"/>
	<polygon points="2040.9 740.95 2030.1 656.96 1913.6 632.57" fill="#6300B2"/>
	<polygon points="2040.9 740.95 1913.6 632.57 1867.5 749.07" fill="#C500B3"/>
	<polygon points="1992.1 548.58 2040.9 364.34 1891.9 529.61" fill="#3ED500"/>
	<polygon points="1891.9 529.61 2040.9 364.34 1875.6 364.34" fill="#15B50F"/>
	<path d="m2040.9 364.34l1.4109-35.277c-5.6294-11.869-11.686-23.496-18.181-34.842l-113.28-13.871 130.05 83.99z" fill="#00EB87"/>
	<path d="m2024.1 294.22c-14.637-25.572-31.414-49.76-50.091-72.32l-63.188 58.449 113.28 13.871z" fill="#F06CD6"/>
	<polygon points="2040.9 364.34 1910.9 280.35 1875.6 364.34" fill="#D7002C"/>
	<polygon points="1919 1475.2 2005.7 1358.7 1902.7 1383.1" fill="#C400C6"/>
	<polygon points="1986.7 1036.3 2003 900.8 1889.2 992.92" fill="#47081D"/>
	<polygon points="1905.4 1263.9 2005.7 1358.7 1994.8 1242.2" fill="#2FE4EA"/>
	<path d="m1910.9 280.35l63.188-58.449c-18.016-21.761-37.794-42.008-59.122-60.519l-1.3573-0.2436-2.7094 119.21z" fill="#A452B2"/>
	<polygon points="1883.8 1120.3 1994.8 1242.2 1994.8 1123" fill="#32DA30"/>
	<polygon points="1889.2 992.92 2003 900.8 1891.9 898.09" fill="#995BED"/>
	<polygon points="1905.4 1263.9 1994.8 1242.2 1883.8 1120.3" fill="#0083BA"/>
	<polygon points="1902.7 1383.1 2005.7 1358.7 1905.4 1263.9" fill="#CA18B3"/>
	<path d="m1913.9 160.49c-0.2169-0.1875-0.4398-0.3688-0.6575-0.556l0.3387 1.206 0.3188-0.65z" fill="#0067CD"/>
	<polygon points="1883.8 1120.3 1994.8 1123 1986.7 1036.3" fill="#19CCF4"/>
	<polygon points="1913.6 632.57 1992.1 548.58 1891.9 529.61" fill="#8E009B"/>
	<polygon points="1916.1 1485.1 1935.1 1485.1 1919 1475.2" fill="#00C55E"/>
	<polygon points="1889.2 992.92 1883.8 1120.3 1986.7 1036.3" fill="#4800CD"/>
	<path d="m1808.1 90.002c-13.224-6.612-26.758-12.696-40.604-18.166l-8.3887 83.888 48.992-65.722z" fill="#2F31F8"/>
	<polygon points="1891.9 529.61 1875.6 364.34 1799.8 404.98" fill="#00A45A"/>
	<polygon points="1794.3 516.07 1891.9 529.61 1799.8 404.98" fill="#C1C714"/>
	<polygon points="1753.7 1247.6 1905.4 1263.9 1883.8 1120.3" fill="#080096"/>
	<polygon points="1905.4 1263.9 1783.5 1374.9 1902.7 1383.1" fill="#BF0076"/>
	<path d="m1913.6 161.14l-0.3387-1.206c-31.862-27.413-67.141-50.954-105.1-69.934l-48.992 65.722 154.43 5.4187z" fill="#352686"/>
	<polygon points="1910.9 280.35 1913.6 161.14 1772.7 253.26" fill="#A23AA8"/>
	<polygon points="1882.6 1485.1 1916.1 1485.1 1919 1475.2" fill="#00B80E"/>
	<polygon points="1783.5 1374.9 1919 1475.2 1902.7 1383.1" fill="#921200"/>
	<polygon points="1891.9 898.09 1867.5 749.07 1770 887.25" fill="#C246F8"/>
	<polygon points="1867.5 749.07 1913.6 632.57 1756.4 637.99" fill="#009270"/>
	<polygon points="1783.5 1374.9 1772.9 1485.1 1882.6 1485.1 1919 1475.2" fill="#003FB6"/>
	<polygon points="1770 887.25 1867.5 749.07 1788.9 754.49" fill="#E0B500"/>
	<polygon points="1756.4 637.99 1891.9 529.61 1794.3 516.07" fill="#4400C4"/>
	<polygon points="1913.6 632.57 1891.9 529.61 1756.4 637.99" fill="#3FBA00"/>
	<polygon points="1913.6 161.14 1759.1 155.72 1772.7 253.26" fill="#26105F"/>
	<polygon points="1767.3 1017.3 1883.8 1120.3 1889.2 992.92" fill="#9B0003"/>
	<polygon points="1753.7 1247.6 1783.5 1374.9 1905.4 1263.9" fill="#FF00AF"/>
	<polygon points="1875.6 364.34 1910.9 280.35 1772.7 253.26" fill="#C27A18"/>
	<polygon points="1770 887.25 1889.2 992.92 1891.9 898.09" fill="#74F900"/>
	<polygon points="1867.5 749.07 1756.4 637.99 1788.9 754.49" fill="#00988E"/>
	<polygon points="1742.9 1106.7 1753.7 1247.6 1883.8 1120.3" fill="#F35B19"/>
	<polygon points="1767.3 1017.3 1889.2 992.92 1770 887.25" fill="#003DB3"/>
	<polygon points="1742.9 1106.7 1883.8 1120.3 1767.3 1017.3" fill="#C12800"/>
	<polygon points="1875.6 364.34 1772.7 253.26 1799.8 404.98" fill="#A700E8"/>
	<polygon points="1656.2 898.09 1767.3 1017.3 1770 887.25" fill="#7D5B00"/>
	<polygon points="1623.7 1467.1 1677.8 1485.1 1772.9 1485.1 1783.5 1374.9" fill="#436632"/>
	<polygon points="1788.9 754.49 1756.4 637.99 1631.8 735.53" fill="#CF5335"/>
	<polygon points="1770 887.25 1788.9 754.49 1656.2 898.09" fill="#009A65"/>
	<polygon points="1788.9 754.49 1631.8 735.53 1656.2 898.09" fill="#001954"/>
	<polygon points="1756.4 637.99 1794.3 516.07 1658.9 535.03" fill="#AB484C"/>
	<polygon points="1794.3 516.07 1650.8 418.53 1658.9 535.03" fill="#00BB4A"/>
	<polygon points="1772.7 253.26 1645.3 304.74 1799.8 404.98" fill="#439600"/>
	<polygon points="1799.8 404.98 1645.3 304.74 1650.8 418.53" fill="#C50022"/>
	<polygon points="1799.8 404.98 1650.8 418.53 1794.3 516.07" fill="#00EFA3"/>
	<polygon points="1653.5 1141.9 1753.7 1247.6 1742.9 1106.7" fill="#9CB200"/>
	<path d="m1759.1 155.72l8.3887-83.888c-38.324-15.141-78.916-25.776-121.12-31.286l-25.446 4.0895 138.18 111.08z" fill="#009C98"/>
	<polygon points="1618.2 1399.3 1783.5 1374.9 1753.7 1247.6" fill="#2483EB"/>
	<polygon points="1623.7 1467.1 1783.5 1374.9 1618.2 1399.3" fill="#023E40"/>
	<polygon points="1759.1 155.72 1621 44.639 1639.9 153.01" fill="#001A8C"/>
	<polygon points="1631.8 990.21 1767.3 1017.3 1656.2 898.09" fill="#7F4FD5"/>
	<polygon points="1648 1220.5 1753.7 1247.6 1653.5 1141.9" fill="#003143"/>
	<polygon points="1631.8 735.53 1756.4 637.99 1634.5 665.08" fill="#00B2AD"/>
	<polygon points="1618.2 1399.3 1753.7 1247.6 1648 1220.5" fill="#FE7E07"/>
	<polygon points="1772.7 253.26 1759.1 155.72 1639.9 153.01" fill="#A722D7"/>
	<polygon points="1639.9 153.01 1645.3 304.74 1772.7 253.26" fill="#7F0DB3"/>
	<path d="m1646.4 40.55c-8.3054-1.0845-16.675-1.9632-25.101-2.6445l-0.3453 6.734 25.446-4.0895z" fill="#5A7300"/>
	<polygon points="1631.8 990.21 1742.9 1106.7 1767.3 1017.3" fill="#170042"/>
	<polygon points="1623.7 1485.1 1677.8 1485.1 1623.7 1467.1" fill="#5300F2"/>
	<polygon points="1634.5 665.08 1756.4 637.99 1658.9 535.03" fill="#AB2A16"/>
	<polygon points="1653.5 1141.9 1742.9 1106.7 1631.8 990.21" fill="#007065"/>
	<polygon points="1639.9 153.01 1523.4 180.11 1645.3 304.74" fill="#62001D"/>
	<polygon points="1523.4 1266.6 1618.2 1399.3 1648 1220.5" fill="#6E9100"/>
	<polygon points="1553.2 1033.6 1653.5 1141.9 1631.8 990.21" fill="#788B1B"/>
	<polygon points="1656.2 898.09 1631.8 735.53 1539.7 881.83" fill="#D800BC"/>
	<polygon points="1634.5 665.08 1658.9 535.03 1534.3 632.57" fill="#A400E1"/>
	<polygon points="1658.9 535.03 1650.8 418.53 1515.3 537.74" fill="#C500F2"/>
	<polygon points="1539.7 881.83 1631.8 735.53 1545.1 730.11" fill="#BD1B46"/>
	<polygon points="1591.8 1485.1 1623.7 1485.1 1623.7 1467.1" fill="#CF0015"/>
	<polygon points="1645.3 304.74 1523.4 180.11 1504.4 285.77" fill="#0079A4"/>
	<polygon points="1650.8 418.53 1645.3 304.74 1499 386.02" fill="#F9CC00"/>
	<polygon points="1658.9 535.03 1515.3 537.74 1534.3 632.57" fill="#25B21E"/>
	<polygon points="1523.4 1266.6 1512.6 1366.8 1618.2 1399.3" fill="#A8380C"/>
	<polygon points="1539.7 881.83 1631.8 990.21 1656.2 898.09" fill="#008A8B"/>
	<polygon points="1648 1220.5 1653.5 1141.9 1501.7 1150.1" fill="#99DE4E"/>
	<polygon points="1650.8 418.53 1499 386.02 1515.3 537.74" fill="#00689E"/>
	<polygon points="1501.7 1150.1 1653.5 1141.9 1553.2 1033.6" fill="#04CD27"/>
	<path d="m1621.3 37.905c-5.2904-0.4276-10.598-0.7941-15.933-1.0597l15.587 7.7937 0.3453-6.734z" fill="#0039D3"/>
	<polygon points="1621 44.639 1523.4 180.11 1639.9 153.01" fill="#761F7F"/>
	<polygon points="1645.3 304.74 1504.4 285.77 1499 386.02" fill="#9F0033"/>
	<polygon points="1501.7 1150.1 1523.4 1266.6 1648 1220.5" fill="#6600C1"/>
	<polygon points="1631.8 735.53 1634.5 665.08 1545.1 730.11" fill="#2E5700"/>
	<polygon points="1553.2 1033.6 1631.8 990.21 1539.7 881.83" fill="#DE00F0"/>
	<polygon points="1545.1 730.11 1634.5 665.08 1534.3 632.57" fill="#364600"/>
	<path d="m1621 44.639l-15.587-7.7937c-8.5765-0.427-17.207-0.6489-25.889-0.6489-17.5 0-34.794 0.8788-51.842 2.5939l-4.2181 141.32 97.537-135.47z" fill="#C4E500"/>
	<polygon points="1512.6 1366.8 1623.7 1467.1 1618.2 1399.3" fill="#00F44A"/>
	<polygon points="1512.6 1366.8 1520.7 1485.1 1591.8 1485.1 1623.7 1467.1" fill="#FC00AA"/>
	<polygon points="1417.7 1483.3 1422.4 1485.1 1520.7 1485.1 1512.6 1366.8" fill="#E98113"/>
	<path d="m1523.4 180.11l-114.68-114.68c-9.7751 3.4585-19.421 7.1871-28.913 11.212v81.796l143.6 21.675z" fill="#75F800"/>
	<path d="m1527.6 38.791c-41.286 4.1533-81.101 13.261-118.9 26.634l114.68 114.68 4.2181-141.32z" fill="#00E9A2"/>
	<polygon points="1417.7 892.67 1539.7 881.83 1425.9 749.07" fill="#004198"/>
	<polygon points="1534.3 632.57 1417.7 654.25 1545.1 730.11" fill="#27C800"/>
	<polygon points="1425.9 749.07 1539.7 881.83 1545.1 730.11" fill="#7ACA27"/>
	<polygon points="1412.3 1033.6 1501.7 1150.1 1553.2 1033.6" fill="#4F00E4"/>
	<polygon points="1417.7 892.67 1553.2 1033.6 1539.7 881.83" fill="#C83322"/>
	<polygon points="1412.3 1033.6 1553.2 1033.6 1417.7 892.67" fill="#94EA00"/>
	<polygon points="1515.3 537.74 1499 386.02 1425.9 545.87" fill="#3F00EA"/>
	<polygon points="1545.1 730.11 1417.7 654.25 1425.9 749.07" fill="#CB2210"/>
	<polygon points="1404.2 1217.8 1523.4 1266.6 1501.7 1150.1" fill="#1A2600"/>
	<polygon points="1515.3 537.74 1425.9 545.87 1534.3 632.57" fill="#6400E2"/>
	<polygon points="1417.7 1483.3 1512.6 1366.8 1398.8 1402" fill="#768215"/>
	<polygon points="1534.3 632.57 1425.9 545.87 1417.7 654.25" fill="#15C268"/>
	<polygon points="1499 386.02 1374.4 410.4 1425.9 545.87" fill="#75A810"/>
	<polygon points="1504.4 285.77 1523.4 180.11 1417.7 277.64" fill="#6C000E"/>
	<polygon points="1398.8 1402 1512.6 1366.8 1404.2 1217.8" fill="#C85900"/>
	<polygon points="1404.2 1217.8 1512.6 1366.8 1523.4 1266.6" fill="#128BA0"/>
	<polygon points="1417.5 1485.1 1422.4 1485.1 1417.7 1483.3" fill="#00867F"/>
	<polygon points="1523.4 180.11 1379.8 158.43 1417.7 277.64" fill="#D8DE00"/>
	<polygon points="1385.2 1128.4 1501.7 1150.1 1412.3 1033.6" fill="#016700"/>
	<polygon points="1504.4 285.77 1417.7 277.64 1499 386.02" fill="#00BF2C"/>
	<polygon points="1499 386.02 1417.7 277.64 1374.4 410.4" fill="#2A1C00"/>
	<polygon points="1385.2 1128.4 1404.2 1217.8 1501.7 1150.1" fill="#FAC000"/>
	<polygon points="1398.8 1402 1404.2 1217.8 1306.7 1391.2" fill="#005BF6"/>
	<polygon points="1306.7 1391.2 1404.2 1217.8 1279.6 1217.8" fill="#FD18B7"/>
	<polygon points="1295.8 1472.5 1306 1485.1 1417.5 1485.1 1417.7 1483.3" fill="#9A5B00"/>
	<polygon points="1257.9 973.95 1412.3 1033.6 1417.7 892.67" fill="#8200E7"/>
	<polygon points="1295.8 873.7 1257.9 973.95 1417.7 892.67" fill="#00C764"/>
	<polygon points="1295.8 873.7 1417.7 892.67 1425.9 749.07" fill="#E35300"/>
	<polygon points="1266 738.24 1295.8 873.7 1425.9 749.07" fill="#B5238B"/>
	<polygon points="1425.9 749.07 1417.7 654.25 1266 738.24" fill="#002561"/>
	<polygon points="1425.9 545.87 1374.4 410.4 1257.9 486.27" fill="#00C8D0"/>
	<polygon points="1417.7 654.25 1425.9 545.87 1285 610.9" fill="#7E089B"/>
	<polygon points="1417.7 277.64 1379.8 158.43 1271.4 277.64" fill="#00CCB0"/>
	<polygon points="1417.7 277.64 1271.4 277.64 1374.4 410.4" fill="#E1D100"/>
	<polygon points="1293.7 1485.1 1306 1485.1 1295.8 1472.5" fill="#5100A7"/>
	<polygon points="1425.9 545.87 1257.9 486.27 1285 610.9" fill="#00450A"/>
	<polygon points="1295.8 1472.5 1417.7 1483.3 1398.8 1402" fill="#009E64"/>
	<polygon points="1417.7 654.25 1285 610.9 1266 738.24" fill="#FB5B00"/>
	<polygon points="1374.4 410.4 1271.4 277.64 1266 386.02" fill="#D1EA00"/>
	<path d="m1379.8 76.636c-12.706 5.3876-25.136 11.292-37.293 17.652l37.293 64.144v-81.796z" fill="#901C12"/>
	<polygon points="1257.9 973.95 1385.2 1128.4 1412.3 1033.6" fill="#005647"/>
	<polygon points="1279.6 1217.8 1404.2 1217.8 1385.2 1128.4" fill="#009794"/>
	<polygon points="1257.9 1150.1 1385.2 1128.4 1257.9 973.95" fill="#B9DF00"/>
	<polygon points="1306.7 1391.2 1295.8 1472.5 1398.8 1402" fill="#3A70DC"/>
	<path d="m1379.8 158.43l-37.293-64.144c-6.4215 3.3589-12.793 6.8008-19.05 10.421-11.771-6.8091-23.871-13.106-36.21-18.982l-21.24 37.483 113.79 35.222z" fill="#004CD2"/>
	<polygon points="1257.9 1150.1 1279.6 1217.8 1385.2 1128.4" fill="#78AAF8"/>
	<polygon points="1379.8 158.43 1266 123.21 1271.4 277.64" fill="#6CA02A"/>
	<polygon points="1374.4 410.4 1266 386.02 1257.9 486.27" fill="#0AB439"/>
	<polygon points="1266 123.21 1160.4 182.82 1271.4 277.64" fill="#90E500"/>
	<polygon points="1271.4 277.64 1160.4 182.82 1171.2 247.84" fill="#B6D600"/>
	<polygon points="1285 610.9 1184.7 643.41 1266 738.24" fill="#0076B3"/>
	<polygon points="1187.5 868.29 1295.8 873.7 1266 738.24" fill="#3B00EB"/>
	<polygon points="1279.6 1217.8 1179.3 1339.7 1306.7 1391.2" fill="#B4B22B"/>
	<polygon points="1252.1 1485.1 1293.7 1485.1 1295.8 1472.5" fill="#00CE4D"/>
	<path d="m1287.3 85.728c-30.125-14.344-61.863-25.83-94.881-34.112l73.641 71.595 21.24-37.483z" fill="#648F00"/>
	<polygon points="1130.6 1120.3 1257.9 1150.1 1257.9 973.95" fill="#F10097"/>
	<polygon points="1173.9 757.2 1187.5 868.29 1266 738.24" fill="#EA0058"/>
	<polygon points="1257.9 486.27 1168.5 518.78 1285 610.9" fill="#00CD52"/>
	<polygon points="1179.3 1339.7 1174.6 1485.1 1252.1 1485.1 1295.8 1472.5" fill="#44CD00"/>
	<polygon points="1179.3 1339.7 1295.8 1472.5 1306.7 1391.2" fill="#B3BD4A"/>
	<polygon points="1187.5 868.29 1257.9 973.95 1295.8 873.7" fill="#210BB8"/>
	<polygon points="1130.6 984.79 1130.6 1120.3 1257.9 973.95" fill="#00AEB8"/>
	<polygon points="1266 386.02 1271.4 277.64 1187.5 394.15" fill="#B20079"/>
	<polygon points="1144.1 1220.5 1179.3 1339.7 1279.6 1217.8" fill="#E159E7"/>
	<polygon points="1285 610.9 1168.5 518.78 1184.7 643.41" fill="#22C017"/>
	<polygon points="1266 386.02 1187.5 394.15 1257.9 486.27" fill="#EA1E2F"/>
	<polygon points="1271.4 277.64 1171.2 247.84 1187.5 394.15" fill="#3B1D01"/>
	<polygon points="1144.1 1220.5 1279.6 1217.8 1257.9 1150.1" fill="#BBE000"/>
	<polygon points="1266 738.24 1184.7 643.41 1173.9 757.2" fill="#008DFA"/>
	<path d="m1266 123.21l-73.641-71.595c-8.2025-2.0578-16.47-3.9503-24.824-5.6066l-7.2004 136.81 105.67-59.606z" fill="#C4583C"/>
	<polygon points="1130.6 984.79 1257.9 973.95 1187.5 868.29" fill="#5F9316"/>
	<polygon points="1257.9 486.27 1187.5 394.15 1168.5 518.78" fill="#6FE16F"/>
	<polygon points="1130.6 1120.3 1144.1 1220.5 1257.9 1150.1" fill="#00B392"/>
	<polygon points="1168.5 518.78 1019.5 540.45 1046.6 656.96" fill="#2FC865"/>
	<path d="m1160.4 182.82l7.2004-136.81c-5.5071-1.0921-11.045-2.0949-16.614-3.0083l-96.252 80.21 105.67 59.606z" fill="#473300"/>
	<polygon points="1033 1464.3 1100.5 1485.1 1152.6 1485.1 1041.1 1366.8" fill="#00DC71"/>
	<polygon points="1046.6 656.96 1068.2 762.62 1173.9 757.2" fill="#5AFE00"/>
	<polygon points="1041.1 1366.8 1152.6 1485.1 1174.6 1485.1 1179.3 1339.7" fill="#C0004F"/>
	<polygon points="1041.1 1366.8 1179.3 1339.7 1144.1 1220.5" fill="#D500C9"/>
	<polygon points="1184.7 643.41 1046.6 656.96 1173.9 757.2" fill="#F600B0"/>
	<polygon points="1184.7 643.41 1168.5 518.78 1046.6 656.96" fill="#F1008A"/>
	<polygon points="1054.7 914.34 1130.6 984.79 1187.5 868.29" fill="#A1D600"/>
	<polygon points="1068.2 762.62 1187.5 868.29 1173.9 757.2" fill="#798B04"/>
	<polygon points="1054.7 914.34 1187.5 868.29 1068.2 762.62" fill="#00FCE3"/>
	<polygon points="1187.5 394.15 1024.9 388.73 1168.5 518.78" fill="#5600CB"/>
	<polygon points="1171.2 247.84 1052 299.32 1187.5 394.15" fill="#BD6F15"/>
	<polygon points="1187.5 394.15 1052 299.32 1024.9 388.73" fill="#099B7A"/>
	<polygon points="1168.5 518.78 1024.9 388.73 1019.5 540.45" fill="#0088BD"/>
	<polygon points="1035.5 1485.1 1100.5 1485.1 1033 1464.3" fill="#D90093"/>
	<polygon points="1022.2 1228.6 1041.1 1366.8 1144.1 1220.5" fill="#4CC200"/>
	<polygon points="1171.2 247.84 1160.4 182.82 1052 299.32" fill="#D559E8"/>
	<path d="m1150.9 43.001c-27.166-4.457-55.043-6.8042-83.472-6.8042-18.133 0-36.04 0.9575-53.686 2.7963l40.906 84.218 96.252-80.21z" fill="#FE0099"/>
	<polygon points="1065.5 1139.2 1144.1 1220.5 1130.6 1120.3" fill="#00BC25"/>
	<polygon points="1160.4 182.82 1054.7 123.21 1052 299.32" fill="#0350EA"/>
	<polygon points="1065.5 1139.2 1130.6 1120.3 1130.6 984.79" fill="#3D4610"/>
	<polygon points="1008.6 992.92 1065.5 1139.2 1130.6 984.79" fill="#C70013"/>
	<polygon points="1022.2 1228.6 1144.1 1220.5 1065.5 1139.2" fill="#0066A1"/>
	<polygon points="1008.6 992.92 1130.6 984.79 1054.7 914.34" fill="#AB4B17"/>
	<polygon points="1024.9 388.73 938.19 399.57 1019.5 540.45" fill="#005DA2"/>
	<polygon points="927.35 1347.8 1041.1 1366.8 1022.2 1228.6" fill="#00F580"/>
	<polygon points="959.38 1485.1 1035.5 1485.1 1033 1464.3" fill="#167A59"/>
	<polygon points="1052 299.32 1054.7 123.21 892.13 274.94" fill="#8F00ED"/>
	<polygon points="1054.7 123.21 886.71 153.01 892.13 274.94" fill="#6A037C"/>
	<polygon points="892.13 1112.1 1065.5 1139.2 1008.6 992.92" fill="#9B00A7"/>
	<polygon points="1046.6 656.96 916.52 768.04 1068.2 762.62" fill="#AA7614"/>
	<polygon points="1068.2 762.62 946.32 873.7 1054.7 914.34" fill="#10D020"/>
	<polygon points="916.52 768.04 946.32 873.7 1068.2 762.62" fill="#2EB221"/>
	<polygon points="924.64 646.12 916.52 768.04 1046.6 656.96" fill="#4616CF"/>
	<polygon points="892.13 1112.1 1022.2 1228.6 1065.5 1139.2" fill="#028300"/>
	<polygon points="1019.5 540.45 924.64 646.12 1046.6 656.96" fill="#00B072"/>
	<polygon points="938.19 548.58 924.64 646.12 1019.5 540.45" fill="#79D600"/>
	<polygon points="1024.9 388.73 1052 299.32 938.19 399.57" fill="#12BBD0"/>
	<polygon points="946.32 873.7 1008.6 992.92 1054.7 914.34" fill="#5D00BB"/>
	<path d="m1054.7 123.21l-40.906-84.218c-5.9205 0.6165-11.803 1.359-17.661 2.1759l-109.41 111.84 167.98-29.803z" fill="#1F253E"/>
	<polygon points="1019.5 540.45 938.19 399.57 938.19 548.58" fill="#83EF51"/>
	<polygon points="1033 1464.3 1041.1 1366.8 927.35 1347.8" fill="#6A0500"/>
	<polygon points="1052 299.32 892.13 274.94 938.19 399.57" fill="#3221C1"/>
	<path d="m996.13 41.169c-30.845 4.3012-60.809 11.339-89.639 20.882l-19.774 90.963 109.41-111.84z" fill="#9300C3"/>
	<polygon points="897.55 1266.6 927.35 1347.8 1022.2 1228.6" fill="#3E1578"/>
	<polygon points="927.35 1347.8 927.35 1485.1 959.38 1485.1 1033 1464.3" fill="#670510"/>
	<polygon points="902.97 976.66 1008.6 992.92 946.32 873.7" fill="#0031F3"/>
	<polygon points="902.97 976.66 892.13 1112.1 1008.6 992.92" fill="#05E4E8"/>
	<polygon points="897.55 1266.6 1022.2 1228.6 892.13 1112.1" fill="#00411E"/>
	<polygon points="813.56 1022.7 892.13 1112.1 902.97 976.66" fill="#E1BE00"/>
	<polygon points="778.34 1402 912.74 1485.1 927.35 1485.1 927.35 1347.8" fill="#00FC42"/>
	<polygon points="892.13 274.94 800.01 391.44 938.19 399.57" fill="#CA50D9"/>
	<polygon points="938.19 399.57 772.92 524.2 938.19 548.58" fill="#8B1200"/>
	<polygon points="938.19 399.57 800.01 391.44 772.92 524.2" fill="#E50024"/>
	<polygon points="794.59 876.41 902.97 976.66 946.32 873.7" fill="#0011A0"/>
	<polygon points="916.52 768.04 808.14 781.59 946.32 873.7" fill="#0058F8"/>
	<polygon points="946.32 873.7 808.14 781.59 794.59 876.41" fill="#020028"/>
	<polygon points="938.19 548.58 781.05 610.9 924.64 646.12" fill="#DF001C"/>
	<polygon points="924.64 646.12 808.14 781.59 916.52 768.04" fill="#111E77"/>
	<polygon points="818.98 1274.7 897.55 1266.6 892.13 1112.1" fill="#0C00F4"/>
	<path d="m906.49 62.05c-22.179 7.3403-43.682 16.157-64.401 26.332l44.627 64.632 19.774-90.963z" fill="#FD0C00"/>
	<polygon points="772.92 524.2 781.05 610.9 938.19 548.58" fill="#0093E7"/>
	<polygon points="793.11 1485.1 912.74 1485.1 778.34 1402" fill="#40B000"/>
	<polygon points="781.05 610.9 808.14 781.59 924.64 646.12" fill="#47F900"/>
	<polygon points="794.59 1109.4 818.98 1274.7 892.13 1112.1" fill="#A07F00"/>
	<polygon points="818.98 1274.7 927.35 1347.8 897.55 1266.6" fill="#11136D"/>
	<polygon points="778.34 1402 927.35 1347.8 818.98 1274.7" fill="#87E81A"/>
	<polygon points="886.71 153.01 808.14 161.14 892.13 274.94" fill="#00BE6B"/>
	<polygon points="772.92 296.61 800.01 391.44 892.13 274.94" fill="#00B389"/>
	<path d="m886.71 153.01l-44.627-64.632c-11.569 5.6813-22.888 11.789-33.945 18.297v54.462l78.572-8.1281z" fill="#E25400"/>
	<polygon points="813.56 1022.7 902.97 976.66 794.59 876.41" fill="#63E100"/>
	<polygon points="794.59 1109.4 892.13 1112.1 813.56 1022.7" fill="#43D907"/>
	<polygon points="892.13 274.94 808.14 161.14 772.92 296.61" fill="#E100CC"/>
	<polygon points="683.51 643.41 675.38 730.11 781.05 610.9" fill="#88D100"/>
	<polygon points="705.19 1467.1 735.29 1485.1 793.11 1485.1 778.34 1402" fill="#E71A00"/>
	<polygon points="781.05 610.9 675.38 730.11 808.14 781.59" fill="#E7CD00"/>
	<polygon points="808.14 161.14 702.48 266.81 772.92 296.61" fill="#98407B"/>
	<path d="m808.14 106.68c-28.764 16.932-55.724 36.591-80.533 58.628l80.533-4.1654v-54.462z" fill="#EB2B00"/>
	<polygon points="680.8 979.37 813.56 1022.7 794.59 876.41" fill="#2B0095"/>
	<polygon points="697.06 1228.6 818.98 1274.7 794.59 1109.4" fill="#C3F300"/>
	<polygon points="697.06 1228.6 778.34 1402 818.98 1274.7" fill="#00F386"/>
	<polygon points="800.01 391.44 678.09 505.23 772.92 524.2" fill="#8300E2"/>
	<polygon points="672.67 1139.2 697.06 1228.6 794.59 1109.4" fill="#2ED200"/>
	<polygon points="645.58 1388.5 778.34 1402 697.06 1228.6" fill="#00A72D"/>
	<polygon points="794.59 876.41 680.8 884.54 680.8 979.37" fill="#472F74"/>
	<polygon points="808.14 781.59 680.8 884.54 794.59 876.41" fill="#5C5CEF"/>
	<polygon points="680.8 979.37 794.59 1109.4 813.56 1022.7" fill="#978116"/>
	<polygon points="808.14 781.59 675.38 730.11 680.8 884.54" fill="#2CA6BC"/>
	<path d="m808.14 161.14l-80.533 4.1654c-18.243 16.205-35.318 33.691-51.087 52.323l25.955 49.177 105.66-105.67z" fill="#9602E1"/>
	<polygon points="672.67 1139.2 794.59 1109.4 680.8 979.37" fill="#0ADB66"/>
	<polygon points="800.01 391.44 640.16 404.98 678.09 505.23" fill="#F2CC02"/>
	<polygon points="700.74 1485.1 735.29 1485.1 705.19 1467.1" fill="#A98A00"/>
	<polygon points="772.92 296.61 640.16 404.98 800.01 391.44" fill="#3D02F3"/>
	<polygon points="702.48 266.81 640.16 404.98 772.92 296.61" fill="#00D284"/>
	<polygon points="678.09 505.23 683.51 643.41 772.92 524.2" fill="#008148"/>
	<polygon points="772.92 524.2 683.51 643.41 781.05 610.9" fill="#4178E2"/>
	<polygon points="705.19 1467.1 778.34 1402 645.58 1388.5" fill="#52A6B0"/>
	<polygon points="542.62 1125.7 672.67 1139.2 680.8 979.37" fill="#C6DD00"/>
	<polygon points="539.91 973.95 542.62 1125.7 680.8 979.37" fill="#8D0060"/>
	<polygon points="675.38 730.11 558.88 789.71 680.8 884.54" fill="#00A48C"/>
	<polygon points="680.8 884.54 558.88 789.71 569.72 860.16" fill="#AC00E8"/>
	<polygon points="678.09 505.23 564.3 526.91 683.51 643.41" fill="#00EB46"/>
	<polygon points="564.3 1223.2 645.58 1388.5 697.06 1228.6" fill="#D44600"/>
	<path d="m676.52 217.63c-15.502 18.315-29.74 37.728-42.58 58.116l68.535-8.9394-25.955-49.177z" fill="#00FB0A"/>
	<path d="m702.48 266.81l-68.535 8.9394c-11.432 18.153-21.751 37.075-30.871 56.67l37.09 72.568 62.315-138.18z" fill="#A77E00"/>
	<polygon points="651.95 1485.1 700.74 1485.1 705.19 1467.1" fill="#5CDE00"/>
	<polygon points="645.58 1388.5 577.13 1485.1 651.95 1485.1 705.19 1467.1" fill="#E800F3"/>
	<polygon points="564.3 1223.2 697.06 1228.6 672.67 1139.2" fill="#5019BD"/>
	<polygon points="564.3 526.91 569.72 659.66 683.51 643.41" fill="#A40085"/>
	<polygon points="550.75 1385.8 645.58 1388.5 564.3 1223.2" fill="#700A63"/>
	<polygon points="680.8 979.37 569.72 860.16 539.91 973.95" fill="#00AD03"/>
	<polygon points="680.8 884.54 569.72 860.16 680.8 979.37" fill="#6200F6"/>
	<polygon points="683.51 643.41 569.72 659.66 675.38 730.11" fill="#B12F00"/>
	<polygon points="640.16 404.98 564.3 526.91 678.09 505.23" fill="#9A5B00"/>
	<polygon points="550.75 1385.8 552.78 1485.1 577.13 1485.1 645.58 1388.5" fill="#ED792D"/>
	<polygon points="542.62 1125.7 564.3 1223.2 672.67 1139.2" fill="#E32743"/>
	<polygon points="675.38 730.11 569.72 659.66 558.88 789.71" fill="#8E00EA"/>
	<path d="m603.07 332.42c-9.4503 20.304-17.635 41.316-24.395 62.961l61.485 9.6071-37.09-72.568z" fill="#773EB1"/>
	<path d="m640.16 404.98l-61.485-9.6071c-8.2832 26.521-14.436 53.979-18.326 82.16l3.9495 49.369 75.862-121.92z" fill="#035D4F"/>
	<polygon points="439.67 1003.8 542.62 1125.7 539.91 973.95" fill="#E10A00"/>
	<polygon points="455.92 1345.1 550.75 1385.8 564.3 1223.2" fill="#6D3800"/>
	<polygon points="455.92 1345.1 564.3 1223.2 442.38 1228.6" fill="#33BEC7"/>
	<path d="m560.35 477.54c-1.8825 13.636-3.2383 27.438-4.025 41.394l7.9745 7.9744-3.9495-49.369z" fill="#960002"/>
	<path d="m556.32 518.93c-0.1073 1.904-0.2049 3.8105-0.2914 5.7202l8.2659 2.2543-7.9745-7.9745z" fill="#61EB00"/>
	<polygon points="569.72 860.16 450.51 900.8 539.91 973.95" fill="#FB4AA9"/>
	<polygon points="558.88 789.71 569.72 659.66 423.41 787" fill="#FB380D"/>
	<path d="m569.72 659.66l-5.4187-132.76-8.5547 5.3466c-0.162 5.2972-0.2709 10.608-0.2709 15.944 0 0.1482 0.0054 0.295 0.0056 0.4432-9.7981 0.3855-19.516 1.0782-29.166 2.0067l-92.064 57.54 135.47 51.478z" fill="#770070"/>
	<polygon points="409.87 1464.3 464.91 1485.1 552.78 1485.1 550.75 1385.8" fill="#22005D"/>
	<polygon points="569.72 659.66 434.25 608.19 423.41 787" fill="#C4CB00"/>
	<polygon points="442.38 1228.6 564.3 1223.2 542.62 1125.7" fill="#103500"/>
	<polygon points="569.72 860.16 558.88 789.71 450.51 900.8" fill="#739300"/>
	<polygon points="558.88 789.71 423.41 787 450.51 900.8" fill="#00E73D"/>
	<polygon points="420.7 1114.8 542.62 1125.7 439.67 1003.8" fill="#BBA600"/>
	<path d="m526.31 550.65c-33.739 3.247-66.518 9.7657-98.022 19.239l5.958 38.301 92.064-57.54z" fill="#48194D"/>
	<path d="m556.03 524.65c-0.1144 2.5291-0.2112 5.0624-0.2889 7.6009l8.5547-5.3466-8.2658-2.2543z" fill="#48194D"/>
	<polygon points="409.87 1464.3 550.75 1385.8 455.92 1345.1" fill="#609DE8"/>
	<polygon points="415.06 1485.1 464.91 1485.1 409.87 1464.3" fill="#EF0090"/>
	<polygon points="442.38 1228.6 542.62 1125.7 420.7 1114.8" fill="#00D958"/>
	<polygon points="450.51 900.8 439.67 1003.8 539.91 973.95" fill="#1C25EF"/>
	<polygon points="434.25 608.19 304.2 740.95 423.41 787" fill="#8CEF2F"/>
	<polygon points="450.51 900.8 290.65 992.92 439.67 1003.8" fill="#4ADE11"/>
	<polygon points="423.41 787 325.88 852.03 450.51 900.8" fill="#D60045"/>
	<polygon points="277.11 1356 409.87 1464.3 455.92 1345.1" fill="#64196B"/>
	<polygon points="336.71 1263.9 455.92 1345.1 442.38 1228.6" fill="#062BE9"/>
	<path d="m338.54 1485c1.7947 0.0609 3.5896 0.1228 5.391 0.1228h71.132l-5.1928-20.771-71.33 20.648z" fill="#04B24F"/>
	<polygon points="420.7 1114.8 301.49 1152.8 442.38 1228.6" fill="#F70085"/>
	<polygon points="325.88 852.03 290.65 992.92 450.51 900.8" fill="#06A100"/>
	<polygon points="336.71 1263.9 277.11 1356 455.92 1345.1" fill="#003AAA"/>
	<path d="m428.29 569.89c-12.482 3.7533-24.76 7.9731-36.821 12.634l42.779 25.667-5.9579-38.301z" fill="#48DF00"/>
	<path d="m434.25 608.19l-102.42 1.8967c-14.04 7.6296-27.682 15.9-40.89 24.766l13.262 106.1 130.05-132.76z" fill="#7403EB"/>
	<polygon points="439.67 1003.8 290.65 992.92 420.7 1114.8" fill="#8EB900"/>
	<polygon points="301.49 1152.8 336.71 1263.9 442.38 1228.6" fill="#985000"/>
	<path d="m391.47 582.52c-20.551 7.941-40.472 17.146-59.643 27.564l102.42-1.8967-42.779-25.667z" fill="#4BF500"/>
	<polygon points="290.65 992.92 301.49 1152.8 420.7 1114.8" fill="#00D5E4"/>
	<path d="m277.11 1356l26.739 123.97c11.278 2.9387 22.902 4.6525 34.69 5.0529l71.33-20.648-132.76-108.37z" fill="#00E827"/>
	<polygon points="423.41 787 304.2 740.95 325.88 852.03" fill="#0078A5"/>
	<polygon points="290.65 992.92 195.83 1136.5 301.49 1152.8" fill="#C5028F"/>
	<polygon points="325.88 852.03 209.37 973.95 290.65 992.92" fill="#83BC00"/>
	<polygon points="184.99 854.74 209.37 973.95 325.88 852.03" fill="#DAE102"/>
	<polygon points="304.2 740.95 184.99 854.74 325.88 852.03" fill="#8E8B00"/>
	<polygon points="301.49 1152.8 193.12 1263.9 336.71 1263.9" fill="#1C00F2"/>
	<polygon points="193.12 1263.9 277.11 1356 336.71 1263.9" fill="#0060DC"/>
	<path d="m290.94 634.85c-23.588 15.834-45.792 33.569-66.38 53.002l79.642 53.095-13.262-106.1z" fill="#D66A00"/>
	<polygon points="209.37 973.95 195.83 1136.5 290.65 992.92" fill="#7F001E"/>
	<polygon points="195.83 1136.5 193.12 1263.9 301.49 1152.8" fill="#5A00EA"/>
	<path d="m304.2 740.95l-126.46-2.5293c-2.5815 3.1902-5.1265 6.4108-7.6323 9.6635l14.883 106.66 119.21-113.79z" fill="#562894"/>
	<path d="m222.5 1430.6c5.3162 5.075 10.715 10.065 16.245 14.909 18.866 16.525 41.196 28.244 65.102 34.473l-26.739-123.97-54.609 74.587z" fill="#00A557"/>
	<path d="m224.56 687.85c-16.714 15.777-32.348 32.681-46.82 50.565l126.46 2.5293-79.642-53.095z" fill="#57894A"/>
	<path d="m174.15 1345.1l-1.5219 30.438c15.285 19.519 31.96 37.891 49.869 54.987l54.609-74.587-102.96-10.838z" fill="#00D777"/>
	<polygon points="174.15 1345.1 277.11 1356 193.12 1263.9" fill="#F2276A"/>
	<path d="m162.6 1362.3c3.2776 4.4768 6.615 8.9064 10.033 13.271l1.5219-30.438-11.555 17.167z" fill="#13CB37"/>
	<path d="m105.24 858.54c-16.462 38.368-28.367 79.147-35.04 121.67l114.79-125.47-79.749 3.7976z" fill="#0b0"/>
	<path d="m195.83 1136.5l-107.36 80.518c3.5038 10.899 7.336 21.65 11.537 32.216l93.112 14.606 2.7094-127.34z" fill="#A52E00"/>
	<path d="m184.99 854.74l-114.79 125.47c-0.0938 0.5978-0.1976 1.1921-0.2894 1.7904l139.46-8.0459-24.384-119.21z" fill="#D15B00"/>
	<path d="m209.37 973.95l-143.89 125.58c0.1473 1.9385 0.297 3.8763 0.4658 5.809l129.88 31.172 13.547-162.56z" fill="#F62BE8"/>
	<path d="m69.91 982c-1.1341 7.3992-2.0949 14.854-2.9088 22.354l-2.8941 43.412c-0.0986 4.1331-0.1536 8.277-0.1536 12.434 0 13.238 0.5376 26.349 1.5245 39.335l143.89-125.58-139.46 8.0459z" fill="#AE5200"/>
	<path d="m170.11 748.08c-16.604 21.554-31.519 44.47-44.57 68.549l59.452 38.11-14.883-106.66z" fill="#0091F4"/>
	<path d="m153.99 1350.2c2.813 4.0854 5.6838 8.127 8.6113 12.126l11.555-17.167-20.166 5.0415z" fill="#896C00"/>
	<path d="m65.944 1105.3c3.3748 38.622 11.052 76.005 22.524 111.69l107.36-80.518-129.88-31.172z" fill="#B100DF"/>
	<path d="m193.12 1263.9l-93.112-14.606c7.2887 18.333 15.622 36.133 24.897 53.353l49.249 42.534 18.966-81.281z" fill="#00D564"/>
	<path d="m125.54 816.63c-7.3765 13.61-14.154 27.589-20.297 41.908l79.749-3.7976-59.452-38.11z" fill="#8E4700"/>
	<path d="m124.9 1302.6c8.8431 16.419 18.561 32.294 29.083 47.575l20.166-5.0415-49.249-42.534z" fill="#006AF3"/>
	<path d="m64.107 1047.8l2.8941-43.412c-1.5522 14.305-2.5454 28.778-2.8941 43.412z" fill="#A50F00"/>
</svg>
